<svg version="1.1" id="Layer_1" xmlns="http://www.w3.org/2000/svg" xmlns:xlink="http://www.w3.org/1999/xlink" x="0px" y="0px"
	 width="100%" viewBox="0 0 1024 1024" enable-background="new 0 0 1024 1024" xml:space="preserve">
<path fill="#000000" opacity="1.000000" stroke="none" 
	d="
M681.555420,111.529648 
	C685.256470,101.489845 688.912231,91.834145 692.378967,82.111046 
	C693.618774,78.633667 695.211670,77.557053 699.019958,78.921829 
	C711.548828,83.411743 711.657654,83.284317 707.111206,95.628342 
	C700.379150,113.906731 693.482483,132.124893 686.836548,150.434250 
	C685.408997,154.367050 683.827576,155.300537 679.517761,153.978928 
	C672.798340,151.918411 669.216797,148.148636 667.194946,141.350632 
	C663.259705,128.118820 658.384888,115.166237 653.884888,102.102943 
	C653.349976,100.550056 652.725586,99.028008 651.998596,97.111870 
	C650.013245,98.378792 649.777039,100.232674 649.177917,101.809776 
	C645.275696,112.081764 641.219604,122.301628 637.622742,132.680222 
	C636.206299,136.767365 634.476257,137.163361 630.680115,135.678452 
	C618.623230,130.962189 618.558105,131.107773 622.995605,119.232193 
	C629.872803,100.827728 636.864136,82.464790 643.563171,63.995773 
	C645.023376,59.970055 646.852478,59.780460 650.637512,60.818153 
	C657.417725,62.676971 660.997498,66.550987 663.015991,73.357712 
	C666.987915,86.751297 671.854492,99.880539 676.410156,113.098747 
	C676.934692,114.620613 677.021057,116.406586 678.548584,117.589005 
	C680.325745,116.066780 680.429260,113.740875 681.555420,111.529648 
z"/>
<path fill="#000000" opacity="1.000000" stroke="none" 
	d="
M900.776489,605.189758 
	C902.488098,605.783813 903.721130,606.872192 906.018494,606.284790 
	C901.799866,594.878540 903.555908,584.197205 911.030212,574.677551 
	C914.957397,569.675659 920.351501,566.710144 926.517822,565.210632 
	C938.211243,562.366943 952.342896,568.799622 957.969360,579.497131 
	C964.334290,591.598755 961.662598,606.398315 951.294800,616.049072 
	C951.939148,618.180359 956.198975,617.076111 955.410828,620.608093 
	C954.440491,624.956055 954.222046,629.518982 952.135986,633.534607 
	C951.477234,634.802673 949.697449,634.361267 948.413757,634.090454 
	C932.145813,630.658936 915.671570,628.108215 899.657715,623.595581 
	C884.996399,619.464050 877.785156,609.285706 878.827881,594.206726 
	C879.606995,582.939392 882.854065,572.350586 889.940186,563.175903 
	C892.553467,559.792480 894.623291,559.350220 897.976868,562.381653 
	C904.364990,568.156128 904.611023,568.048523 899.792725,574.951965 
	C896.051941,580.311646 894.114807,586.325867 893.626587,592.663025 
	C893.217834,597.970215 895.497009,602.391541 900.776489,605.189758 
M935.746399,583.336975 
	C934.430054,583.195129 933.113525,582.929749 931.797363,582.931641 
	C923.772705,582.943054 918.371704,589.066406 918.280823,598.185120 
	C918.198792,606.406433 923.190918,611.665771 931.324036,611.926636 
	C938.630188,612.161072 943.510010,607.962585 945.341553,599.866516 
	C946.932617,592.833069 943.697693,586.817993 935.746399,583.336975 
z"/>
<path fill="#000000" opacity="1.000000" stroke="none" 
	d="
M591.160400,899.189453 
	C591.893677,886.941345 598.496033,879.390991 608.935059,874.938843 
	C619.215942,870.554199 629.884888,868.524719 641.108765,870.728638 
	C645.109253,871.514221 647.277283,873.088928 645.563904,877.491028 
	C645.206848,878.408447 645.071106,879.427673 644.938660,880.414062 
	C644.340027,884.873230 642.930786,886.949341 637.488525,885.595093 
	C631.388184,884.077087 624.932861,884.684509 618.812439,886.982483 
	C610.205811,890.213928 607.542908,895.409058 610.028992,904.525757 
	C628.498474,891.898987 642.153870,890.990112 653.511658,901.631653 
	C663.174072,910.684998 665.511841,925.622620 659.001770,936.852356 
	C653.482544,946.372986 638.618530,955.908203 622.006897,949.411926 
	C620.085876,950.908875 623.300781,954.058472 620.498901,954.993958 
	C616.254822,956.410889 611.891235,957.508362 607.521667,958.488220 
	C606.166687,958.792053 605.643555,957.262512 605.357178,956.146484 
	C600.528564,937.325012 593.201416,919.131226 591.160400,899.189453 
M629.427002,937.749268 
	C638.487671,936.723877 644.529968,931.390076 644.680420,924.284241 
	C644.848816,916.335571 639.548340,910.461060 631.834351,910.046692 
	C623.202271,909.583008 615.864258,915.082642 615.284912,922.450073 
	C614.624878,930.843018 619.829407,936.824829 629.427002,937.749268 
z"/>
<path fill="#000000" opacity="1.000000" stroke="none" 
	d="
M316.745422,873.494263 
	C314.250153,889.023499 303.568665,900.399414 289.859619,902.450806 
	C277.587677,904.287048 265.936951,897.488220 258.872192,884.172302 
	C254.277527,889.597717 250.846146,895.670410 247.264008,901.590576 
	C244.935806,905.438354 242.889404,905.542542 239.322327,903.163574 
	C228.984161,896.268555 228.968155,896.444885 235.794525,886.006470 
	C247.190155,868.580872 258.589447,851.155640 269.745056,833.576660 
	C272.349915,829.471924 274.692291,828.132996 278.667389,831.585632 
	C280.036865,832.775085 281.710449,833.618896 283.263062,834.591919 
	C285.952789,836.277466 288.699341,837.923767 285.439819,841.668884 
	C304.740295,842.495605 318.004150,856.014343 316.745422,873.494263 
M298.089630,874.286316 
	C298.320892,873.320007 298.658264,872.365356 298.766724,871.385498 
	C299.657623,863.335388 295.219543,856.913879 287.742096,855.368347 
	C280.036285,853.775696 272.710388,858.620483 269.926483,867.150330 
	C267.544647,874.448242 270.645508,881.416809 277.644836,884.495667 
	C285.500366,887.951172 292.716064,884.555603 298.089630,874.286316 
z"/>
<path fill="#000000" opacity="1.000000" stroke="none" 
	d="
M41.484558,448.560028 
	C44.387627,434.571564 41.912853,435.874939 55.746910,438.472687 
	C60.240658,439.316467 64.677910,440.999695 69.469757,440.566223 
	C64.742889,422.990021 69.891441,408.972961 83.288925,402.478333 
	C95.943886,396.343628 114.149361,400.444305 122.290886,411.257080 
	C130.066498,421.583893 130.958267,438.717590 119.252785,450.125580 
	C119.725090,452.207489 123.675415,451.564087 122.981194,454.560242 
	C121.972496,458.913666 122.032661,463.553864 119.927223,467.592224 
	C119.116913,469.146393 117.173073,468.445404 115.762520,468.174561 
	C91.927292,463.597626 68.107285,458.941162 44.266029,454.396149 
	C40.757862,453.727356 40.437325,451.794922 41.484558,448.560028 
M107.068459,443.686188 
	C113.248253,438.014984 114.530533,430.032837 110.211494,424.120972 
	C105.570030,417.767761 94.897194,415.581726 88.233917,419.619446 
	C82.129066,423.318817 79.923409,431.727844 83.287697,438.476715 
	C86.915802,445.754822 97.660255,448.362610 107.068459,443.686188 
z"/>
<path fill="#000000" opacity="1.000000" stroke="none" 
	d="
M926.972473,445.202881 
	C924.053528,445.363556 921.628906,445.814453 918.772705,446.980865 
	C920.073547,456.247986 921.379333,465.573517 922.698242,474.897186 
	C922.791199,475.554199 923.021545,476.191467 923.119141,476.848145 
	C924.680786,487.353210 923.498718,488.651520 912.733459,488.774689 
	C910.211487,488.803558 909.101074,487.741180 908.772400,485.365143 
	C906.447205,468.557404 904.106812,451.751770 901.720703,434.952637 
	C901.215210,431.393280 902.588623,429.935516 906.195557,429.450195 
	C924.486694,426.989136 942.748962,424.312531 961.017822,421.687378 
	C964.799866,421.143890 968.560303,420.448975 972.343933,419.918671 
	C974.526062,419.612823 976.796387,419.308807 977.302551,422.459015 
	C980.174377,440.332489 982.659180,458.255249 984.684692,475.907043 
	C983.998291,476.518890 983.786499,476.868134 983.508911,476.932129 
	C970.389893,479.958038 970.421570,479.950714 968.577209,466.591156 
	C967.577271,459.348297 966.341248,452.136963 965.414673,444.885498 
	C964.934692,441.129578 963.213318,439.635040 959.441833,440.360291 
	C947.111023,442.731537 949.270264,439.556183 950.709290,451.864777 
	C951.538025,458.954071 952.719421,466.005219 953.876282,473.051483 
	C954.298767,475.624786 953.290222,476.826996 950.880249,477.177765 
	C950.715454,477.201721 950.550659,477.228058 950.385010,477.243683 
	C940.732788,478.154938 940.000549,481.644012 938.550598,468.528320 
	C937.911743,462.748901 936.844299,457.016479 935.955017,451.265228 
	C934.789795,443.729248 934.782776,443.730347 926.972473,445.202881 
z"/>
<path fill="#000000" opacity="1.000000" stroke="none" 
	d="
M437.079712,961.037048 
	C442.517822,964.476624 448.132416,966.428467 454.118744,967.381409 
	C457.474091,967.915527 460.744843,967.772949 463.897125,966.354797 
	C466.398010,965.229797 467.828644,963.429993 467.931396,960.592590 
	C468.027039,957.952271 466.917358,956.052490 464.594482,954.960876 
	C460.534454,953.052917 456.424713,951.249878 452.323761,949.430054 
	C448.220673,947.609070 443.956329,946.091431 440.023865,943.959229 
	C433.194885,940.256470 428.553375,934.889648 428.685242,926.549988 
	C428.820496,917.995544 432.683838,911.621826 440.023376,907.308899 
	C445.055481,904.351929 450.663635,903.170959 456.325531,903.265564 
	C468.350281,903.466431 479.666016,906.421326 489.811462,913.250244 
	C493.149445,915.497009 494.128204,917.558960 491.673065,921.342407 
	C486.556915,929.226440 486.747101,929.360291 478.475159,924.512146 
	C472.321716,920.905640 465.574921,919.267944 458.572784,918.481934 
	C456.195312,918.215027 453.888000,918.781677 451.740753,919.647278 
	C446.661713,921.694824 445.921112,926.924133 450.294952,930.231506 
	C453.632477,932.755249 457.578491,934.215271 461.467285,935.698303 
	C466.599335,937.655273 471.775696,939.528931 476.527924,942.320679 
	C490.211365,950.359253 490.697937,968.635254 477.560181,977.605286 
	C472.257660,981.225769 466.289642,982.664612 460.076324,982.703918 
	C449.426605,982.771118 439.289124,980.536194 430.019073,974.933655 
	C426.883728,973.038696 425.667511,971.071960 427.999908,967.752319 
	C429.238831,965.988953 430.346161,964.094421 431.236115,962.133545 
	C432.593231,959.143311 434.456329,959.222473 437.079712,961.037048 
z"/>
<path fill="#000000" opacity="1.000000" stroke="none" 
	d="
M78.713440,609.532349 
	C61.047863,607.116943 47.560360,593.013794 44.826614,574.546143 
	C43.288780,564.157532 44.514992,554.296204 50.275795,545.299072 
	C53.521347,540.230225 54.100471,540.174377 58.635250,543.802124 
	C59.155083,544.218018 59.651638,544.662842 60.162712,545.089844 
	C65.981972,549.952148 65.982147,549.951965 62.692928,556.851379 
	C57.516197,567.710022 61.279907,581.539673 71.111740,587.786072 
	C80.633202,593.835266 96.006927,591.142273 102.844933,582.227356 
	C110.019135,572.874146 109.193527,558.365173 100.323471,550.376343 
	C96.588661,547.012573 96.526443,544.926880 99.320244,541.040161 
	C105.533798,532.395752 106.776817,531.888367 113.585739,540.382690 
	C124.567093,554.082092 126.954811,569.689575 120.567490,585.942078 
	C114.279724,601.941345 101.104782,608.808899 84.585129,610.079041 
	C82.792862,610.216858 80.956360,609.779358 78.713440,609.532349 
z"/>
<path fill="#000000" opacity="1.000000" stroke="none" 
	d="
M67.195618,487.880127 
	C61.881737,486.540131 59.583195,483.707977 60.561501,478.372711 
	C61.121548,475.318542 60.180946,472.083160 61.198044,469.109406 
	C63.110107,467.882385 64.547905,469.114868 65.977348,469.769104 
	C85.650307,478.773163 105.377960,487.662872 124.936592,496.909760 
	C139.317764,503.708893 144.338089,517.903748 137.825607,531.972107 
	C135.271210,537.490173 134.625626,537.705505 129.349777,534.788452 
	C128.475784,534.305237 127.653122,533.694519 126.731133,533.338745 
	C122.770256,531.809998 121.858826,529.635437 124.305183,525.801147 
	C126.035728,523.088867 126.338837,519.829346 124.714882,516.722595 
	C122.530907,512.544434 119.299774,511.296844 114.902908,513.044434 
	C98.512268,519.559021 82.137596,526.113831 65.742134,532.616211 
	C63.928925,533.335327 62.223698,534.558838 59.374256,534.113708 
	C58.124561,528.713501 59.668953,523.201599 60.086945,517.749878 
	C60.232178,515.855591 62.831448,515.559753 64.489029,514.908447 
	C74.090698,511.135925 83.728218,507.454681 93.331070,503.685089 
	C94.498123,503.226990 95.950394,503.196564 97.046494,501.417358 
	C87.133636,496.922363 77.336464,492.479828 67.195618,487.880127 
z"/>
<path fill="#000000" opacity="1.000000" stroke="none" 
	d="
M490.013336,91.954094 
	C491.141052,93.769081 491.372437,95.719772 493.492401,97.243431 
	C496.286255,89.601295 499.001648,82.184883 501.706696,74.764702 
	C502.219666,73.357574 502.694366,71.936440 503.182465,70.520302 
	C507.574493,57.778194 509.432770,56.727127 523.137573,59.261791 
	C523.989197,60.566242 523.318420,61.820183 522.877319,63.021122 
	C515.306091,83.633858 507.891937,104.306976 500.054871,124.818428 
	C494.523346,139.295654 480.785004,145.297287 466.363007,140.120102 
	C460.798889,138.122711 460.469391,137.347137 462.845947,131.846268 
	C463.373962,130.624054 463.957977,129.422226 464.414734,128.173859 
	C465.473022,125.281631 467.138763,124.178764 470.106384,125.857735 
	C472.050934,126.957893 474.270813,126.980827 476.441132,126.861694 
	C482.909943,126.506615 485.954346,121.304771 483.058105,115.353882 
	C475.557495,99.942451 467.950195,84.582947 460.440308,69.176003 
	C459.446564,67.137344 457.915619,65.238998 458.141571,62.127441 
	C463.127106,61.464512 468.144012,60.764751 473.244263,60.985535 
	C475.690033,61.091408 476.338928,63.283699 477.183563,65.038734 
	C481.441193,73.885780 485.636414,82.762871 490.013336,91.954094 
z"/>
<path fill="#000000" opacity="1.000000" stroke="none" 
	d="
M845.978027,292.347595 
	C830.930786,284.272614 822.374084,268.671265 824.667053,254.033905 
	C827.215393,237.766296 844.721985,225.830200 860.702026,229.869751 
	C874.479004,233.352356 882.793213,242.816376 885.737061,256.331238 
	C888.384399,268.484802 882.923645,277.962036 873.449951,285.471405 
	C870.217041,288.033905 868.317566,287.677856 865.898010,284.216522 
	C859.506897,275.073395 852.707336,266.215302 846.044189,257.263275 
	C845.174988,256.095520 844.555969,254.631027 842.638977,254.082932 
	C839.107605,257.981812 839.378601,262.670807 841.043823,266.994781 
	C843.248840,272.720490 847.133118,277.437256 853.178894,279.525299 
	C856.251648,280.586517 857.053711,282.257568 856.319031,285.136292 
	C856.196472,285.616638 856.206055,286.129059 856.121765,286.621063 
	C854.643250,295.247742 854.617798,295.262115 845.978027,292.347595 
M859.028748,256.499542 
	C861.911011,260.184235 864.278931,264.315308 867.801086,267.629578 
	C872.612427,261.308044 872.326050,254.981430 867.424438,249.601105 
	C863.271118,245.042130 857.643127,243.977432 852.526489,247.047867 
	C853.913818,250.417099 856.578674,252.970093 859.028748,256.499542 
z"/>
<path fill="#000000" opacity="1.000000" stroke="none" 
	d="
M212.758499,221.738297 
	C208.379608,226.444168 204.230453,230.882141 199.900299,235.513702 
	C203.630768,238.708710 207.079269,238.114929 210.273972,236.788651 
	C217.351044,233.850632 221.700668,228.428467 223.514175,220.984634 
	C224.476807,217.033325 227.497086,216.021149 234.382629,217.061890 
	C238.335480,217.659363 238.003479,220.299850 237.523895,223.036453 
	C234.881180,238.116272 225.645859,247.734268 211.639572,252.588593 
	C199.464111,256.808380 189.029083,252.806168 180.600662,243.482864 
	C169.251694,230.928940 170.595230,213.174149 183.662735,200.576843 
	C195.818634,188.858337 212.976303,188.679245 225.020584,199.932617 
	C228.212158,202.914597 228.852722,205.165329 225.355682,208.441696 
	C220.993408,212.528671 217.089844,217.105225 212.758499,221.738297 
M190.381256,214.016403 
	C187.983444,218.642044 187.100113,223.165787 190.894501,227.598892 
	C195.736633,224.445770 206.373199,213.033051 208.235245,209.154633 
	C202.379837,205.156219 196.658066,206.541351 190.381256,214.016403 
z"/>
<path fill="#000000" opacity="1.000000" stroke="none" 
	d="
M207.358368,802.706055 
	C212.852463,804.557007 215.894852,809.160706 219.872314,812.566406 
	C226.554718,818.288269 232.882462,824.424377 239.567780,830.577942 
	C242.816299,827.282288 242.161011,823.780884 240.967667,820.623596 
	C238.309418,813.590271 233.070160,808.832397 225.717880,807.632324 
	C221.329422,806.915955 220.765839,804.934448 220.773285,801.338867 
	C220.791885,792.342468 222.171722,791.171387 231.023499,793.547363 
	C247.756393,798.038879 267.875366,821.879395 253.088303,843.604431 
	C245.981308,854.046021 235.914413,859.032043 223.428482,857.028137 
	C209.463425,854.786743 200.247009,846.049377 196.545853,832.588074 
	C193.270996,820.677368 197.875549,810.739380 207.358368,802.706055 
M217.085815,839.525879 
	C223.574661,843.497375 226.699966,843.508484 232.303879,839.282043 
	C226.281448,833.030396 220.014801,827.187927 213.161942,821.722046 
	C209.578140,828.716370 210.557404,833.152405 217.085815,839.525879 
z"/>
<path fill="#000000" opacity="1.000000" stroke="none" 
	d="
M884.180725,778.069946 
	C872.136414,792.881348 855.766052,795.328918 841.616943,784.900818 
	C838.486206,782.593445 838.173523,780.778748 840.533691,777.613647 
	C847.103638,768.803162 853.360840,759.759277 859.727173,750.797302 
	C860.674133,749.464233 861.955933,748.286987 862.012451,746.156799 
	C858.422485,744.295776 854.865906,745.099976 851.708008,746.977844 
	C845.989624,750.378052 841.792786,755.506226 841.572510,762.150330 
	C841.398132,767.410034 839.082825,768.447083 834.810059,769.039429 
	C827.498047,770.053101 826.229248,769.058899 826.735840,761.673035 
	C827.888794,744.861450 844.092590,728.777954 860.017944,728.638123 
	C882.910767,728.437134 897.641357,751.601807 887.675903,772.182922 
	C886.736877,774.122253 885.492615,775.913818 884.180725,778.069946 
M859.617126,775.242065 
	C866.862610,776.032715 872.408630,772.770813 874.919617,766.242004 
	C876.943176,760.980591 875.878662,756.399719 871.424194,753.244324 
	C866.992737,759.545593 862.533264,765.848206 858.126770,772.187683 
	C857.323547,773.343201 857.596802,774.386169 859.617126,775.242065 
z"/>
<path fill="#000000" opacity="1.000000" stroke="none" 
	d="
M789.082520,816.290100 
	C782.738159,815.872314 782.281433,815.296143 783.394226,809.684082 
	C787.415344,789.404846 809.856445,775.266785 827.658936,781.797058 
	C839.205994,786.032715 847.890747,797.996948 848.159119,810.038452 
	C848.419861,821.737183 839.496948,835.037048 828.090759,839.950928 
	C816.623169,844.891418 804.163940,842.356384 794.947571,833.445129 
	C792.143372,830.733826 791.598877,828.801086 794.779907,825.757202 
	C802.589050,818.284912 810.044006,810.441589 817.605469,802.712341 
	C818.861267,801.428650 820.421204,800.346375 821.049927,798.253601 
	C817.043274,795.210449 812.942566,796.195496 808.972229,798.131775 
	C803.819458,800.644897 799.566345,804.567322 798.541626,810.182678 
	C797.482544,815.986206 794.443298,817.062012 789.082520,816.290100 
M815.736023,820.159424 
	C814.515137,821.802490 812.146179,822.646729 812.137390,825.137878 
	C817.957703,828.890930 824.105164,827.873291 828.933716,822.432861 
	C833.431152,817.365479 833.768616,811.828186 829.245300,806.076477 
	C824.855530,810.658020 820.539185,815.162964 815.736023,820.159424 
z"/>
<path fill="#000000" opacity="1.000000" stroke="none" 
	d="
M127.471909,349.381042 
	C123.764107,359.738037 120.184074,369.729858 116.562622,379.837250 
	C124.638321,380.353638 131.176132,374.518341 132.584930,365.713470 
	C132.973816,363.282990 133.268661,360.587494 132.617401,358.294586 
	C131.406235,354.030273 133.221405,352.190552 136.893692,351.074554 
	C138.319214,350.641327 139.726135,350.061768 141.037399,349.355560 
	C143.695053,347.924133 144.965698,349.145508 145.961349,351.531708 
	C147.760284,355.843109 147.814377,360.398224 147.255630,364.811523 
	C145.650375,377.490234 140.257431,388.154083 128.595383,394.373932 
	C118.257019,399.887756 107.882088,398.492828 98.282860,392.254303 
	C85.224380,383.767548 81.336601,367.260834 88.567268,352.470184 
	C95.792435,337.690826 109.800995,331.690643 125.187523,336.784821 
	C131.214493,338.780273 131.415176,339.214294 129.077911,345.306946 
	C128.601288,346.549408 128.093246,347.779846 127.471909,349.381042 
M109.168488,367.741699 
	C111.097549,362.489838 113.026611,357.237946 114.983612,351.910034 
	C107.410324,350.595184 102.277023,353.966522 100.108070,361.280334 
	C98.120483,367.982544 100.169395,373.259277 106.100960,375.801941 
	C107.029846,373.341827 107.953705,370.894989 109.168488,367.741699 
z"/>
<path fill="#000000" opacity="1.000000" stroke="none" 
	d="
M862.249878,298.157715 
	C871.940491,291.723907 879.847351,292.821472 887.181946,301.326172 
	C890.921875,305.662720 893.279846,310.833618 895.987244,315.796265 
	C896.854370,317.385681 897.426514,319.181091 899.389526,320.632294 
	C903.576477,318.935822 904.974487,315.611755 904.182068,311.267090 
	C902.915039,304.320801 898.872925,299.093689 893.140747,295.267365 
	C890.126099,293.255035 890.186768,291.609497 892.182251,288.847778 
	C898.187317,280.536774 899.243835,280.274628 906.582581,287.805847 
	C913.799622,295.212097 919.149902,303.697296 920.479980,314.266754 
	C921.506653,322.425476 918.798279,329.295197 912.310913,333.998810 
	C901.903137,341.544922 889.879639,346.323853 878.624268,352.428864 
	C878.067993,352.730591 877.152832,353.100067 876.760620,352.859039 
	C873.734741,350.999756 873.019165,347.527130 871.386780,344.706665 
	C869.772339,341.917206 867.219543,338.908966 872.401611,336.199890 
	C863.857788,332.523895 859.823242,325.790924 857.272461,318.009460 
	C854.841309,310.592957 856.051025,303.891785 862.249878,298.157715 
M887.500916,327.457703 
	C888.631042,320.990326 884.146851,316.926331 880.844666,312.471863 
	C879.437195,310.573242 877.063843,309.786163 874.568359,311.018860 
	C872.015198,312.280060 871.128906,314.420044 871.214783,317.144989 
	C871.470398,325.251648 879.163635,330.514771 887.500916,327.457703 
z"/>
<path fill="#000000" opacity="1.000000" stroke="none" 
	d="
M890.810181,683.286011 
	C886.134827,681.005493 881.827209,678.823486 877.468750,676.748169 
	C875.200256,675.667908 874.520264,674.218323 875.904297,672.006714 
	C875.992126,671.866455 876.053589,671.709167 876.121765,671.557251 
	C881.745239,659.024536 881.763550,658.986450 894.206421,664.988586 
	C906.353943,670.848206 918.403931,676.913330 930.614990,682.635803 
	C934.330750,684.377075 935.454346,686.206604 933.038574,689.799561 
	C931.936462,691.438782 931.270630,693.374451 930.434021,695.188232 
	C929.095154,698.091125 928.188110,701.649780 923.229004,698.477844 
	C923.692993,705.644714 923.506653,711.687073 920.660889,717.443481 
	C914.415344,730.076538 902.914307,735.154358 889.973206,729.794434 
	C879.374939,725.405029 869.202576,719.990295 858.820618,715.073853 
	C856.513489,713.981140 855.980286,712.466309 857.262207,710.278442 
	C857.429810,709.992310 857.536377,709.671021 857.692932,709.377686 
	C865.067200,695.566772 860.979004,696.496155 875.222229,703.056946 
	C880.665344,705.564209 885.940063,708.436340 891.377991,710.955444 
	C899.425293,714.683594 904.995300,713.355896 908.160889,707.168396 
	C911.970398,699.722412 909.704163,692.924377 901.900513,688.750732 
	C898.378113,686.866760 894.741638,685.196045 890.810181,683.286011 
z"/>
<path fill="#000000" opacity="1.000000" stroke="none" 
	d="
M166.051849,805.787781 
	C163.561325,803.142700 166.273499,801.714844 167.173218,799.533508 
	C159.094498,797.018616 153.101395,792.076965 149.123734,784.726807 
	C143.999527,775.257935 144.834534,765.719055 152.350479,758.106750 
	C161.144989,749.199463 171.592926,742.225830 181.437439,734.554016 
	C183.305130,733.098450 184.779480,733.509460 186.089462,735.286438 
	C186.188110,735.420227 186.298401,735.546265 186.411041,735.668762 
	C195.932373,746.019775 195.928009,746.014038 184.959610,754.509338 
	C179.957855,758.383240 174.932327,762.228577 169.998825,766.188110 
	C163.748642,771.204285 162.594467,776.612915 166.429352,782.215027 
	C170.815262,788.622009 177.711929,790.382385 184.182587,785.927490 
	C191.715622,780.741272 198.901398,775.025330 206.004547,769.252197 
	C208.955750,766.853638 210.688431,766.656738 213.213104,769.878113 
	C221.203613,780.073547 221.349884,780.009399 211.203323,787.991150 
	C200.472870,796.432251 189.532074,804.615540 179.011826,813.309143 
	C175.184296,816.472107 173.136444,815.700745 170.810745,812.037048 
	C169.477509,809.936768 167.793488,808.059143 166.051849,805.787781 
z"/>
<path fill="#000000" opacity="1.000000" stroke="none" 
	d="
M708.327087,133.378448 
	C712.481628,126.512573 716.516357,119.999069 720.356445,113.372742 
	C722.054626,110.442413 723.511597,109.343231 726.975464,111.446014 
	C738.323120,118.334930 738.401550,118.179741 731.518860,129.697800 
	C728.187622,135.272446 724.750244,140.792145 721.648926,146.493378 
	C718.056702,153.097122 719.116516,157.955322 724.553955,161.752426 
	C730.229858,165.716034 736.388855,165.121628 740.980225,159.557785 
	C746.934082,152.342834 751.134094,143.936554 755.875305,135.923584 
	C758.166199,132.051712 760.088989,131.365509 764.061584,133.859222 
	C774.348022,140.316345 774.456055,140.130707 768.212952,150.441238 
	C760.968201,162.405975 753.624878,174.313385 746.565918,186.386932 
	C744.463013,189.983719 742.407898,190.658600 739.108032,188.171478 
	C737.385437,186.873215 735.536987,185.686356 733.604553,184.735336 
	C730.676392,183.294342 729.034851,181.473312 730.936035,178.270538 
	C729.445007,176.856430 727.869690,177.443497 726.456299,177.393951 
	C706.445496,176.692474 695.277954,157.924881 704.363831,140.162811 
	C705.499512,137.942596 706.867676,135.841324 708.327087,133.378448 
z"/>
<path fill="#000000" opacity="1.000000" stroke="none" 
	d="
M677.916504,886.172729 
	C681.013000,892.487122 683.851562,898.510742 686.885742,904.434204 
	C690.336182,911.170288 695.100952,913.262878 701.041077,910.891296 
	C708.274536,908.003357 711.618530,901.980164 708.893799,894.948608 
	C705.593262,886.431274 701.752441,878.090027 697.605713,869.947388 
	C695.464111,865.742065 696.378601,863.985840 700.409302,862.085571 
	C711.186035,857.004639 711.156250,856.820557 716.230103,867.369446 
	C722.433044,880.265991 728.439087,893.258728 734.773987,906.089478 
	C736.461304,909.506897 735.859802,911.239502 732.414551,912.507935 
	C730.237732,913.309326 728.125488,914.357910 726.114746,915.521179 
	C723.153015,917.234497 720.523804,918.025818 718.888306,913.032410 
	C714.437256,920.411987 709.056458,925.346985 701.623230,927.864868 
	C690.259583,931.714111 680.178345,928.492310 673.962830,918.270630 
	C667.728699,908.018250 663.503357,896.726440 658.067322,886.051941 
	C657.075195,884.103638 657.481995,882.517700 659.671021,881.617371 
	C660.592590,881.238342 661.466553,880.744385 662.366089,880.310669 
	C672.820618,875.269653 672.820801,875.270081 677.916504,886.172729 
z"/>
<path fill="#000000" opacity="1.000000" stroke="none" 
	d="
M309.094299,918.837158 
	C315.931641,902.053223 322.884521,885.659607 329.722992,869.218506 
	C331.057343,866.010437 332.901520,865.331604 335.919434,866.892212 
	C337.687225,867.806396 339.573792,868.515869 341.455750,869.178772 
	C344.783356,870.350891 347.617401,871.783020 345.626740,876.596863 
	C354.108765,874.603149 361.390747,876.084595 368.199646,880.273621 
	C377.580292,886.044983 381.546600,895.158325 378.521881,905.998535 
	C375.201782,917.897278 369.251343,928.792480 364.551819,940.168091 
	C363.646210,942.360291 362.199036,942.782532 360.174194,941.748474 
	C359.878052,941.597229 359.572510,941.462036 359.263916,941.337830 
	C346.923309,936.371155 346.927307,936.373108 352.000671,924.220886 
	C354.565887,918.076477 357.331299,912.004089 359.610321,905.754822 
	C362.175659,898.720398 360.255951,893.717041 354.504425,891.016785 
	C348.063568,887.992798 341.726105,889.615601 338.256958,896.129700 
	C334.511139,903.163391 331.608643,910.646606 328.348755,917.938354 
	C327.669525,919.457581 326.955780,920.968811 326.399841,922.534119 
	C325.358582,925.466370 323.678711,926.533508 320.712250,924.916931 
	C316.942627,922.862793 312.516968,922.128784 309.094299,918.837158 
z"/>
<path fill="#000000" opacity="1.000000" stroke="none" 
	d="
M952.655029,530.297363 
	C953.371887,518.833557 949.116089,514.001038 937.747803,513.454895 
	C930.100342,513.087524 922.430054,513.030212 914.772522,513.103821 
	C910.261780,513.147156 908.333191,511.422882 908.911011,506.830475 
	C910.537292,493.905975 907.263062,494.528595 921.950806,495.404144 
	C935.231628,496.195831 948.573303,495.758698 961.876404,496.600830 
	C968.311829,497.008179 968.331726,496.728699 968.337158,503.416779 
	C968.338501,505.082092 968.207092,506.756073 968.334290,508.410889 
	C968.600403,511.873871 967.429382,513.943176 962.645142,513.334656 
	C966.616699,519.868103 968.624634,526.168762 968.381348,533.177124 
	C967.915222,546.603394 958.660461,556.114319 945.224976,556.252869 
	C934.238647,556.366211 923.252747,556.318298 912.274841,555.477661 
	C908.782166,555.210266 907.666809,553.838684 907.737732,550.537659 
	C908.082703,534.493042 907.297607,537.931458 920.076172,537.844482 
	C927.568237,537.793518 935.062378,538.046753 942.554504,538.000732 
	C947.547974,537.970093 951.188232,535.799438 952.655029,530.297363 
z"/>
<path fill="#000000" opacity="1.000000" stroke="none" 
	d="
M328.238647,115.818069 
	C334.452667,127.074715 340.393494,138.065033 346.615692,148.893707 
	C348.583588,152.318466 348.226135,154.322845 344.532471,155.817886 
	C342.691040,156.563232 340.975464,157.639832 339.250305,158.647659 
	C336.300201,160.371094 333.383301,162.187057 331.521027,156.430206 
	C328.044617,163.616196 323.724335,168.645538 317.255890,171.704102 
	C305.428436,177.296616 294.060669,174.903122 286.985260,163.988937 
	C280.657166,154.227554 275.422028,143.759460 269.650574,133.634003 
	C268.380798,131.406311 268.870270,129.916443 271.066162,128.752045 
	C272.977814,127.738396 274.811920,126.578949 276.720093,125.558372 
	C283.697906,121.826408 282.617279,120.130333 287.551178,128.979507 
	C291.363129,135.816422 295.054871,142.723495 299.008118,149.477631 
	C303.159821,156.570938 308.148315,158.410049 314.288757,155.464874 
	C320.682617,152.398163 323.141388,146.232254 320.247467,139.104065 
	C316.858124,130.755630 312.086365,123.080940 307.523102,115.339119 
	C305.312469,111.588646 305.322449,109.531967 309.685547,107.276634 
	C320.602814,101.633400 320.478333,101.394897 326.388580,112.424049 
	C326.939301,113.451775 327.511902,114.467773 328.238647,115.818069 
z"/>
<path fill="#000000" opacity="1.000000" stroke="none" 
	d="
M179.313507,252.801544 
	C191.216400,252.992493 198.640121,261.775940 196.588699,273.032104 
	C193.964706,287.430115 185.008240,297.345459 173.216827,305.127167 
	C170.819168,306.709473 168.952988,306.366241 167.525620,303.660095 
	C166.065247,300.891357 164.361679,298.250854 162.555679,295.201508 
	C166.587799,292.117340 170.889862,289.896942 174.181503,286.364441 
	C177.045898,283.290375 179.680496,280.092712 181.247101,276.181763 
	C181.992966,274.319733 182.441803,272.136292 180.433090,270.724213 
	C178.432861,269.318054 176.561295,270.356781 175.056641,271.807556 
	C171.464752,275.270905 168.123337,279.009460 164.387711,282.304657 
	C158.565292,287.440521 152.290710,291.455109 144.119720,287.238007 
	C137.573105,283.859283 133.964508,278.437256 134.483673,271.110870 
	C135.537613,256.237701 144.395721,246.179459 155.988342,238.034805 
	C157.596344,236.905060 159.110565,237.056381 160.227417,238.858017 
	C160.752975,239.705826 161.300217,240.540802 161.805115,241.400696 
	C165.789215,248.186020 165.770096,248.165298 159.575516,252.838654 
	C155.509537,255.906128 152.534882,259.884033 150.390198,264.465698 
	C149.391052,266.600189 148.401031,268.998047 150.800980,270.812592 
	C153.490128,272.845764 155.465256,270.839417 157.302582,269.132385 
	C161.201202,265.510284 165.049469,261.833649 168.897354,258.157379 
	C171.735641,255.445694 175.032166,253.624115 179.313507,252.801544 
z"/>
<path fill="#000000" opacity="1.000000" stroke="none" 
	d="
M256.312347,208.488220 
	C243.491837,210.238373 231.285339,203.227051 225.577881,191.145355 
	C220.088928,179.526184 222.902740,165.283798 232.944641,155.974792 
	C241.070435,148.442047 250.223846,143.511841 261.928986,146.587097 
	C265.825470,147.610809 267.442352,149.339676 265.113800,153.268433 
	C264.188049,154.830338 263.532013,156.576477 262.929810,158.300446 
	C261.840271,161.419540 260.178894,162.664612 256.547882,161.962555 
	C248.340347,160.375610 240.791092,166.494644 239.743011,175.082382 
	C238.835968,182.514404 246.659058,191.660675 254.593765,192.444962 
	C262.207581,193.197525 269.281921,187.294296 269.765228,179.249802 
	C269.984741,175.596069 271.588837,174.187347 274.865540,173.898056 
	C275.528442,173.839523 276.189941,173.747101 276.846527,173.637024 
	C286.266571,172.057556 287.898376,173.860123 285.725677,183.453842 
	C282.991089,195.528641 270.462463,206.316498 256.312347,208.488220 
z"/>
<path fill="#000000" opacity="1.000000" stroke="none" 
	d="
M764.211975,206.621338 
	C750.570068,184.400116 768.121277,161.587112 787.312988,160.306442 
	C803.831726,159.204132 822.032104,174.309708 822.946960,190.644058 
	C823.311829,197.158035 821.939575,198.355026 815.600647,197.016632 
	C813.972900,196.672974 812.373047,196.174698 810.733948,195.912338 
	C807.786987,195.440582 806.734070,193.925354 806.624878,190.837738 
	C806.349670,183.053009 800.500549,177.354523 792.994507,177.014694 
	C784.960205,176.650955 777.564758,183.020660 776.392151,191.314163 
	C775.416199,198.217468 780.254822,205.268707 787.311035,207.138245 
	C788.421814,207.432556 789.605103,207.446289 790.750549,207.618164 
	C792.901123,207.940903 795.568909,205.523270 797.167664,208.289246 
	C799.245972,211.884705 800.808411,215.828964 801.326111,219.959625 
	C801.633606,222.413345 798.971680,222.561157 797.356018,222.894501 
	C788.661926,224.688217 780.877014,222.421860 773.941589,217.063629 
	C770.237427,214.201782 766.911438,210.946548 764.211975,206.621338 
z"/>
<path fill="#000000" opacity="1.000000" stroke="none" 
	d="
M145.869919,720.856689 
	C147.477325,719.915710 148.776855,719.171753 150.060318,718.401123 
	C156.706635,714.410339 157.335678,710.963806 151.933975,705.444519 
	C149.763504,703.226807 149.974487,701.850464 151.751678,699.623657 
	C158.057114,691.722961 160.310089,691.723206 166.361450,700.028442 
	C176.166702,713.485779 173.914764,725.045227 159.799133,733.484131 
	C154.803879,736.470398 149.824219,739.498596 144.690186,742.230896 
	C141.723419,743.809692 140.700134,745.509277 142.809326,748.434387 
	C144.812424,751.212402 144.252136,753.283936 141.097916,754.741394 
	C139.595047,755.435730 138.153702,756.305786 136.789169,757.247925 
	C134.218399,759.022766 132.144348,758.939209 130.865326,755.809570 
	C129.431396,752.300842 127.451744,752.134949 124.273254,753.946777 
	C116.255692,758.516907 116.181450,758.386597 111.433250,750.276794 
	C111.349220,750.133240 111.262596,749.991150 111.179642,749.846985 
	C107.340431,743.175720 105.752373,743.482910 113.913475,739.375488 
	C115.666985,738.492981 117.272911,737.317139 119.316055,736.046875 
	C117.501122,732.770935 115.902206,729.713257 114.137718,726.754272 
	C112.718094,724.373657 113.200920,722.872986 115.653175,721.553833 
	C125.879715,716.052612 123.749268,715.378967 129.178207,724.830688 
	C129.914276,726.112183 130.508255,727.527344 132.439987,728.457947 
	C136.641968,726.081726 141.098312,723.561646 145.869919,720.856689 
z"/>
<path fill="#000000" opacity="1.000000" stroke="none" 
	d="
M444.111206,106.766129 
	C448.561371,112.271851 452.960846,109.027824 457.070099,107.203659 
	C458.889191,107.925850 459.366394,109.456963 460.158264,110.689941 
	C465.413788,118.873108 464.688721,120.637993 454.994720,123.371513 
	C451.455658,124.369469 447.856842,125.196785 444.168335,124.951485 
	C433.973175,124.273483 427.733002,118.630295 425.736053,108.395134 
	C424.430237,101.702118 423.082642,95.013466 421.988434,88.284698 
	C421.507141,85.324951 420.413666,84.099091 417.364929,85.100555 
	C413.643890,86.322884 411.636108,84.958565 411.419739,80.966576 
	C411.348206,79.647034 411.043915,78.326279 410.722656,77.036812 
	C409.888855,73.690506 410.531738,71.525597 414.563202,71.391045 
	C415.791687,71.350044 416.994812,70.548546 418.441376,70.008850 
	C417.918213,67.028610 417.548004,64.238884 416.918610,61.508915 
	C416.158081,58.210239 417.379456,56.398712 420.647400,55.854118 
	C421.304047,55.744694 421.969330,55.687469 422.630127,55.602528 
	C426.053528,55.162472 429.806183,52.804844 432.762909,54.487766 
	C435.688843,56.153156 434.860138,60.481930 435.553680,63.677658 
	C436.063934,66.028893 437.457489,67.090775 439.884735,66.639290 
	C440.375580,66.547997 440.865204,66.449730 441.356781,66.362663 
	C451.034943,64.648529 452.074097,65.552971 452.441620,75.384827 
	C452.535156,77.887093 451.674561,78.835609 449.218628,79.374542 
	C438.658661,81.691811 438.666168,81.782150 440.872192,92.311378 
	C441.859314,97.022964 442.904724,101.722336 444.111206,106.766129 
z"/>
<path fill="#000000" opacity="1.000000" stroke="none" 
	d="
M394.183167,964.926697 
	C390.161652,964.225037 389.135345,962.291748 390.285614,958.774719 
	C391.154175,956.118835 392.098236,953.412231 391.948029,950.218811 
	C389.063873,948.348572 385.564301,947.952881 382.276245,947.021179 
	C379.712280,946.294556 378.588776,944.961060 379.609802,942.286133 
	C379.904816,941.513123 380.074036,940.691833 380.296539,939.891418 
	C382.458160,932.115479 381.502930,932.435364 389.530945,934.622253 
	C396.108154,936.413879 396.122894,936.364502 397.935730,929.613403 
	C399.271759,924.637878 400.719971,919.691589 402.000183,914.701965 
	C403.522583,908.768555 401.405029,905.802002 395.390167,905.221313 
	C389.966492,904.697693 388.549316,902.450317 389.228027,894.476013 
	C389.601959,890.082825 393.349030,890.801758 396.133270,890.835327 
	C402.435547,890.911316 408.310486,892.770813 413.421051,896.486694 
	C420.609467,901.713440 421.423920,909.215942 419.818817,917.111206 
	C418.462311,923.783630 416.500153,930.337097 414.690033,936.911194 
	C413.919434,939.709961 414.518616,941.533203 417.583527,941.960693 
	C421.882080,942.560364 422.062408,945.106018 420.817871,948.450378 
	C420.413330,949.537537 420.070801,950.666992 419.869385,951.807007 
	C419.226776,955.444092 417.594757,957.202942 413.693390,955.540649 
	C412.696808,955.116028 411.457520,955.260925 409.960236,955.105835 
	C409.136902,957.954834 408.104340,960.593628 407.647461,963.328613 
	C406.969574,967.386292 404.928619,968.189941 401.316223,966.866272 
	C399.139099,966.068542 396.826355,965.640869 394.183167,964.926697 
z"/>
<path fill="#000000" opacity="1.000000" stroke="none" 
	d="
M827.197021,206.196304 
	C835.166565,198.623062 842.986755,191.401932 850.548157,183.919220 
	C853.545288,180.953339 855.655579,181.159515 858.232117,184.280334 
	C860.743958,187.322845 863.600708,190.080673 865.576477,192.186127 
	C860.580139,197.777939 856.253906,203.272629 851.263794,208.077881 
	C838.211426,220.646591 824.772156,232.813309 811.710510,245.372559 
	C808.480530,248.478348 806.612610,248.299164 803.732605,245.028351 
	C795.682495,235.886002 795.576050,236.015060 804.465637,227.677505 
	C811.983582,220.626389 819.453064,213.523544 827.197021,206.196304 
z"/>
<path fill="#000000" opacity="1.000000" stroke="none" 
	d="
M118.665604,322.375641 
	C115.096069,320.492279 111.847656,318.793915 108.627029,317.044373 
	C107.469330,316.415497 106.179581,315.833069 105.911476,314.322540 
	C105.244415,310.564270 113.230721,301.009705 117.538681,300.772095 
	C117.736404,295.877075 117.640686,290.908752 119.506721,286.146332 
	C120.780220,282.896179 122.302170,281.776825 125.387970,283.867676 
	C125.936127,284.239075 126.572327,284.477997 127.154190,284.802612 
	C129.766327,286.259979 133.136932,287.152191 134.781876,289.340027 
	C136.674484,291.857300 133.181122,294.329742 132.540115,297.012085 
	C130.872665,303.989594 133.140030,309.502136 140.006180,313.308350 
	C147.144592,317.265442 154.392059,321.033783 161.681198,324.707367 
	C164.747681,326.252777 165.556213,328.016388 163.513214,330.948364 
	C162.567490,332.305603 161.922882,333.871765 161.131485,335.337646 
	C157.028458,342.937286 158.710144,343.561157 149.454727,338.718292 
	C139.269333,333.388824 129.147324,327.938232 118.665604,322.375641 
z"/>
<path fill="#000000" opacity="1.000000" stroke="none" 
	d="
M756.064636,826.924866 
	C758.909058,822.588501 763.263367,820.322327 766.920898,817.246094 
	C768.546082,815.879150 769.968018,816.494385 771.168762,818.044189 
	C781.864563,831.849121 792.575806,845.642029 803.257812,859.457642 
	C803.750854,860.095337 804.504944,861.119507 804.299255,861.617615 
	C802.335938,866.373230 797.389038,867.990295 793.885315,871.145813 
	C791.634949,873.172546 790.454407,870.488098 788.957703,869.429443 
	C788.720398,869.261597 788.366516,869.258484 787.838989,869.119080 
	C786.542114,874.148193 784.199280,878.584595 780.542053,882.366089 
	C778.055237,884.937500 776.014282,885.639771 773.918701,882.116211 
	C773.580872,881.548340 773.110046,881.060791 772.714783,880.525635 
	C771.040039,878.258118 768.604858,876.203064 767.887268,873.663574 
	C766.926514,870.263611 771.195007,869.688171 772.845581,867.570007 
	C776.882874,862.389282 777.363831,855.939392 773.135010,850.028076 
	C767.625732,842.327026 761.796875,834.854675 756.064636,826.924866 
z"/>
<path fill="#000000" opacity="1.000000" stroke="none" 
	d="
M945.879150,371.239563 
	C948.421936,375.174316 947.997620,377.664185 943.371033,378.772919 
	C940.016907,379.576660 936.973450,381.507721 933.615295,381.736023 
	C933.269409,381.516052 933.067688,381.460999 932.999695,381.334198 
	C925.248657,366.880707 922.558716,365.867249 906.984680,371.557312 
	C901.199341,373.670959 895.375549,375.687988 889.649902,377.952911 
	C886.678101,379.128448 885.215637,378.470673 884.009094,375.418610 
	C879.027832,362.818085 878.912903,362.784485 891.461304,358.107880 
	C904.408569,353.282593 917.446350,348.698975 930.369568,343.811432 
	C933.841614,342.498230 935.664917,343.226532 936.612610,346.779266 
	C937.124817,348.699615 937.851013,350.589386 938.704773,352.386475 
	C940.398865,355.952118 940.857788,359.063141 935.571655,360.742615 
	C940.079651,363.654358 943.534546,366.690674 945.879150,371.239563 
z"/>
<path fill="#000000" opacity="1.000000" stroke="none" 
	d="
M369.546997,99.491852 
	C363.092804,104.984329 361.831238,108.856407 364.471893,116.394531 
	C367.107849,123.919464 369.990479,131.365479 373.015839,138.743195 
	C374.421173,142.170334 374.147430,143.962250 370.261719,145.454498 
	C358.188354,150.091095 358.263947,150.258667 353.719818,138.392761 
	C348.845123,125.663765 344.114075,112.875771 338.973938,100.254601 
	C337.175476,95.838631 338.301483,93.785591 342.626343,92.699471 
	C344.225067,92.297981 345.746124,91.555611 347.269714,90.893066 
	C350.712494,89.395966 354.159393,87.770943 355.019531,94.582130 
	C358.487396,88.726822 362.361053,84.998642 367.434753,82.506950 
	C370.070953,81.212318 371.843994,81.436218 372.826935,84.424088 
	C373.189880,85.527405 373.655701,86.596809 374.072540,87.682465 
	C377.122192,95.625435 377.122009,95.625504 369.546997,99.491852 
z"/>
<path fill="#000000" opacity="1.000000" stroke="none" 
	d="
M904.086060,656.020630 
	C898.820557,654.263550 893.950684,652.562378 889.021118,651.056396 
	C885.724976,650.049438 884.723511,648.235535 886.288696,645.097229 
	C886.582947,644.507324 886.731934,643.844788 886.946228,643.215210 
	C890.625183,632.405701 890.617920,632.426392 901.197388,636.061707 
	C914.719666,640.708313 928.220032,645.423523 941.807495,649.872070 
	C945.493835,651.078979 946.390198,652.666443 945.174011,656.414734 
	C941.169800,668.756226 941.289551,668.809387 928.971375,664.603943 
	C920.792053,661.811523 912.627441,658.975891 904.086060,656.020630 
z"/>
<path fill="#000000" opacity="1.000000" stroke="none" 
	d="
M726.393555,846.342529 
	C735.395081,841.096313 733.378418,839.663391 739.542664,849.201477 
	C747.572815,861.626770 755.394897,874.187439 763.512817,886.554443 
	C765.753174,889.967529 765.558289,892.035828 761.859985,894.005005 
	C758.380249,895.858032 755.140869,898.162537 751.321106,900.567139 
	C748.046753,895.527466 744.975098,890.836853 741.941101,886.122070 
	C735.824890,876.617676 729.744629,867.090088 723.620056,857.591125 
	C718.664551,849.905334 718.828064,851.381897 726.393555,846.342529 
z"/>
<path fill="#000000" opacity="1.000000" stroke="none" 
	d="
M404.265381,88.892975 
	C407.819031,101.602913 411.192047,113.945015 414.841492,126.204826 
	C415.923279,129.839050 414.769318,131.226761 411.362152,132.216644 
	C398.668304,135.904572 398.704773,135.989349 395.194855,123.158325 
	C391.642120,110.170845 388.200928,97.150215 384.416412,84.230362 
	C383.255737,80.267830 383.515625,78.355446 388.061646,77.142860 
	C400.186554,73.908745 400.123718,73.679329 403.350159,85.624336 
	C403.610016,86.586258 403.909485,87.537476 404.265381,88.892975 
z"/>
<path fill="#000000" opacity="1.000000" stroke="none" 
	d="
M127.855682,664.220032 
	C124.121323,672.533447 116.922256,676.083496 109.633957,673.521301 
	C102.661827,671.070251 98.687675,663.735779 100.568672,656.790955 
	C102.395287,650.046875 109.324165,645.349487 116.115929,646.251038 
	C123.351082,647.211365 128.275711,652.884888 128.313248,660.366028 
	C128.319046,661.521118 128.110291,662.677185 127.855682,664.220032 
z"/>
<path fill="#000000" opacity="1.000000" stroke="none" 
	d="
M545.361267,924.177979 
	C553.535950,927.208801 557.626953,933.108154 556.697510,940.059570 
	C555.859070,946.330505 550.867371,951.392456 544.520386,952.178284 
	C538.903259,952.873596 534.331604,950.866028 531.218201,946.121155 
	C528.042175,941.280884 527.590454,936.089539 530.643311,931.056274 
	C533.854736,925.761353 538.684509,923.307556 545.361267,924.177979 
z"/>
<path fill="#000000" opacity="1.000000" stroke="none" 
	d="
M559.044434,93.613770 
	C559.444031,84.705162 563.549377,79.292976 570.571167,77.931236 
	C576.527344,76.776146 582.821167,79.870544 585.617493,85.328896 
	C589.052429,92.033546 586.350037,100.800308 579.781616,104.261063 
	C572.712524,107.985619 564.212646,105.335854 560.627808,98.221130 
	C559.961792,96.899300 559.608032,95.420143 559.044434,93.613770 
z"/>
<path fill="#000000" opacity="1.000000" stroke="none" 
	d="
M778.773438,908.320923 
	C777.892334,915.670959 773.833130,919.915649 767.592896,920.464966 
	C761.003296,921.044922 755.890930,914.913330 757.607422,908.488770 
	C758.814880,903.969360 763.880859,899.841431 768.657715,899.917786 
	C773.937256,900.002136 777.242676,902.904358 778.773438,908.320923 
z"/>
<path fill="#000000" opacity="1.000000" stroke="none" 
	d="
M390.513550,68.866058 
	C387.209595,69.678528 384.247620,70.202065 381.429169,68.653893 
	C377.603149,66.552277 375.472778,63.354279 376.026917,58.895836 
	C376.589050,54.373043 380.909698,50.458511 386.009857,49.858780 
	C390.440369,49.337803 394.266998,50.526844 396.439484,54.848282 
	C398.457001,58.861427 397.555786,63.793026 394.243896,66.656242 
	C393.260803,67.506142 392.007294,68.043213 390.513550,68.866058 
z"/>
<path fill="#000000" opacity="1.000000" stroke="none" 
	d="
M958.475464,654.898682 
	C964.012695,654.373352 967.519165,656.575562 969.239624,661.418823 
	C970.806091,665.828552 969.057617,671.519165 965.312927,674.358887 
	C961.726440,677.078735 957.868652,677.161316 954.222717,674.697388 
	C950.618042,672.261536 949.074036,668.621826 950.057556,664.319336 
	C951.070618,659.888000 953.489380,656.448792 958.475464,654.898682 
z"/>
</svg>